<?xml version="1.0" encoding="UTF-8" standalone="no"?>
<svg
   xmlns:dc="http://purl.org/dc/elements/1.1/"
   xmlns:cc="http://creativecommons.org/ns#"
   xmlns:rdf="http://www.w3.org/1999/02/22-rdf-syntax-ns#"
   xmlns:svg="http://www.w3.org/2000/svg"
   xmlns="http://www.w3.org/2000/svg"
   viewBox="0 0 604 73.333336"
   height="73.333336"
   width="604"
   xml:space="preserve"
   id="svg2"
   version="1.1"><metadata
     id="metadata8"><rdf:RDF><cc:Work
         rdf:about=""><dc:format>image/svg+xml</dc:format><dc:type
           rdf:resource="http://purl.org/dc/dcmitype/StillImage" /></cc:Work></rdf:RDF></metadata><defs
     id="defs6" /><g
     transform="matrix(1.3333333,0,0,-1.3333333,0,73.333333)"
     id="g10"><g
       transform="scale(0.1)"
       id="g12"><path
         id="path14"
         style="fill:#eb2123;fill-opacity:1;fill-rule:evenodd;stroke:none"
         d="m 2167.62,5.82031 c 3.51,1.25 10.47,16.44919 20.93,45.62889 10.47,29.1719 4.38,64.6798 -18.32,106.6018 -22.69,41.64 -82.03,81.789 -178,120.39 -95.98,38.668 -248.83,67.969 -458.52,87.887 l -270.74,142.891 c 0.74,3.98 -35.43,13.941 -108.48,29.922 -72.81,15.937 -186.72,14.339 -341.791,-4.84 C 657.852,515.078 457.77,454.73 212.422,353.238 208.711,356.762 183.629,369.34 137.27,391.02 90.8984,412.461 45.1602,421.84 0,419.059 1.25,420.078 20.8203,413.09 58.7109,398.121 96.8789,382.93 146.602,353.629 207.93,310.23 c 3.011,1.758 40.66,17 112.968,45.668 72.032,28.403 161.801,59.063 269.262,91.993 107.18,32.66 214.68,56.328 322.379,71.058 107.931,14.449 198.941,8.711 273.011,-17.23 l 335.47,-167.891 c 3.98,0.512 41.52,-3.519 112.57,-11.988 71.29,-8.719 151.96,-24.692 241.96,-47.86 90,-23.199 165.31,-56.48 225.9,-99.878 60.82,-43.122 82.89,-99.2231 66.17,-168.28169" /><path
         id="path16"
         style="fill:#eb2123;fill-opacity:1;fill-rule:evenodd;stroke:none"
         d="m 1406.95,318.09 -206.79,133.898 c 1.95,2.5 -14.73,9.961 -50.16,22.461 -35.39,12.192 -101.72,14.692 -198.949,7.461 -97.5,-7.461 -238.121,-39.762 -421.871,-96.871 -2.969,0 -8.711,-3.48 -17.192,-10.469 -8.468,-6.718 -2.726,-16.718 17.192,-29.922 -2.461,0.274 -3.75,4.372 -3.75,12.34 0.269,7.742 16.992,18.211 50.16,31.453 33.16,12.93 97.961,27.379 194.449,43.36 3.012,1.25 30.66,6.359 83.012,15.308 52.609,8.981 111.719,13.36 177.259,13.121 65.82,-0.23 119.96,-13.468 162.35,-39.64 2.96,-3.75 26.79,-20.078 71.4,-48.988 44.89,-28.711 92.5,-46.524 142.89,-53.512" /><path
         id="path18"
         style="fill:#eb2123;fill-opacity:1;fill-rule:evenodd;stroke:none"
         d="m 1335.51,353.629 -198.6,-35.149 h 270.04 l -71.44,35.149" /><path
         id="path20"
         style="fill:#eb2123;fill-opacity:1;fill-rule:evenodd;stroke:none"
         d="m 842.969,456.879 47.109,-120.828 -83.75,103.211 36.641,17.617" /><path
         id="path22"
         style="fill:#eb2123;fill-opacity:1;fill-rule:evenodd;stroke:none"
         d="m 238.629,283.711 c -2.539,1.988 -20.699,8.711 -54.609,20.199 -33.942,11.442 -69.571,16.828 -106.9887,16.051 -1.211,-1.211 -6.9532,-9.84 -17.1915,-25.781 -10.4609,-16.211 -18.5507,-32.77 -24.289,-49.731 1.4805,2 10.4687,9.852 26.9101,23.563 16.4493,13.668 30.6993,21.437 42.6171,23.199 3.75,0.238 22.223,0.238 55.391,0 33.402,-0.512 59.453,-3.012 78.16,-7.5" /><path
         id="path24"
         style="fill:#eb2123;fill-opacity:1;fill-rule:evenodd;stroke:none"
         d="m 1843.4,253.051 c 3.24,1.48 27.89,-3.012 74.02,-13.481 46.13,-10.23 94.1,-35.781 143.99,-76.679 2.5,-1.481 1.01,-5.121 -4.5,-10.821 -5.46,-5.742 -29.53,-5.511 -72.18,0.739 2.5,0 7.5,4.101 14.96,12.351 7.5,8.238 1.99,19.801 -16.45,34.762 -18.2,14.957 -64.8,32.656 -139.84,53.129" /><path
         id="path26"
         style="fill:#eb2123;fill-opacity:1;fill-rule:evenodd;stroke:none"
         d="m 1150.39,272.5 c 2.23,0.512 30.9,1.988 86.02,4.449 54.84,2.539 122.3,2.891 202.3,1.141 80.31,-1.488 159.34,-7.969 237.11,-19.461 77.81,-11.481 140.74,-30.777 188.87,-57.969 -2.97,3.012 -68.44,15.36 -196.33,37.039 -128.16,21.442 -300.82,33.039 -517.97,34.801" /><path
         id="path28"
         style="fill:#eb2123;fill-opacity:1;fill-rule:evenodd;stroke:none"
         d="m 937.23,211.52 c -3.011,2.23 -38.281,13.601 -105.859,34.031 -67.582,20.469 -148.949,36.64 -244.223,48.629 -94.957,12.191 -185.468,6.871 -271.488,-16.09 1.219,2.5 29.18,10.23 83.75,23.199 54.61,12.691 128.559,15.43 221.801,8.242 93.238,-7.5 198.559,-40.152 316.019,-98.011" /><path
         id="path30"
         style="fill:#a51212;fill-opacity:1;fill-rule:nonzero;stroke:none"
         d="m 2296.84,242.699 c 6.95,-0.75 13.36,-1.328 19.21,-1.719 5.83,-0.32 11.25,-0.468 16.25,-0.468 15.51,0 31.18,1.289 47.04,3.898 15.93,2.578 31.28,6.41 46.09,11.41 10.94,3.75 18.59,7.192 22.97,10.309 4.37,3.133 6.56,6.492 6.56,10.16 0,5.313 -5.12,10.231 -15.31,14.84 -10.24,4.691 -30.59,10.672 -61.1,17.973 -27.73,6.558 -46.05,12.738 -55,18.597 -8.86,5.821 -13.28,13.629 -13.28,23.43 0,13.211 1.8,25.242 5.47,36.101 3.75,10.93 8.91,19.571 15.47,25.93 11.64,10.942 31.02,20.551 58.13,28.91 27.18,8.321 54.25,12.5 81.25,12.5 17.38,0 31.56,-1.679 42.5,-5 10.93,-3.359 16.4,-7.5 16.4,-12.5 0,-8.98 -1.72,-16.871 -5.15,-23.75 -3.36,-6.871 -8.05,-12.031 -14.07,-15.468 -1.68,-0.942 -6.87,-3.364 -15.62,-7.192 -8.75,-3.859 -16.33,-7.57 -22.66,-11.09 -2.73,-1.48 -5.78,-3.359 -9.22,-5.621 -3.43,-2.308 -5.78,-3.437 -7.03,-3.437 -1.48,0 -2.65,0.347 -3.59,1.09 -0.86,0.82 -1.25,1.949 -1.25,3.437 0,3.633 7.81,11.012 23.44,22.191 l 4.21,3.122 c -1.17,0 -3.24,0.039 -6.25,0.16 -3.04,0.187 -5.58,0.308 -7.65,0.308 -30.12,0 -57.35,-4.84 -81.72,-14.531 -24.3,-9.687 -36.41,-19.059 -36.41,-28.129 0,-5.93 11.96,-12.262 35.94,-18.898 13.63,-3.75 24.84,-7.032 33.59,-9.852 22.7,-7.301 40.71,-16.32 54.07,-27.031 13.32,-10.738 20,-21.399 20,-32.027 0,-8.364 -3.6,-18.59 -10.78,-30.782 -7.19,-12.109 -15.43,-20.941 -24.69,-26.558 -14.3,-8.364 -33.36,-15.121 -57.19,-20.313 -23.75,-5.32 -48.36,-7.969 -73.75,-7.969 -19.61,0 -35.78,2.5 -48.59,7.5 -12.7,5 -19.07,10.969 -19.07,17.969 0,2.18 2,7.223 5.94,15.153 3.99,8.007 7.85,13.988 11.72,17.968 2.5,2.809 7.03,5.2 13.59,7.192 6.65,2.066 14.54,3.437 23.6,4.058 -1.56,-2.621 -3.56,-4.922 -5.94,-6.871 -2.3,-1.879 -5,-3.558 -8.12,-5 z m 289.45,3.59 c -13.44,-17.187 -24.69,-29.961 -33.75,-38.277 -8.99,-8.364 -16.06,-12.5 -21.25,-12.5 -6.88,0 -13.28,4.367 -19.22,13.117 -6.02,8.832 -9.06,19.461 -9.06,31.883 0,11.129 2.58,21.91 7.65,32.34 5,10.386 13.52,22.226 25.63,35.468 7.26,8.129 12.97,13.321 17.03,15.629 4.06,2.379 8.59,3.59 13.59,3.59 5.71,0 10.55,-0.777 14.54,-2.34 4.06,-1.57 6.09,-3.398 6.09,-5.469 0,-3.679 -2.97,-9.031 -8.91,-16.101 -5.86,-7.109 -19.49,-20.859 -40.93,-41.25 -2.43,-5.309 -4.18,-9.801 -5.32,-13.43 -1.17,-3.558 -1.72,-6.648 -1.72,-9.219 0,-1.679 0.08,-2.89 0.32,-3.601 0.31,-0.617 0.82,-0.93 1.56,-0.93 4.14,0 12.73,5.313 25.78,15.93 13.01,10.633 27.54,24.461 43.59,41.57 l 0.47,0.153 c 28.64,30.82 45.82,46.25 51.57,46.25 2.38,0 4.14,-1.372 5.31,-4.063 1.25,-2.738 1.87,-6.641 1.87,-11.719 0,-7.191 -2.46,-13.711 -7.34,-19.531 l -0.47,-0.469 c -11.99,-13.55 -21.64,-26.64 -28.91,-39.218 -7.18,-12.622 -10.78,-21.993 -10.78,-28.122 0,-2.5 0.86,-4.609 2.66,-6.25 1.76,-1.57 3.83,-2.351 6.25,-2.351 3.51,0 8.79,2.422 15.78,7.351 6.95,5 20.66,16.598 41.09,34.84 v -16.871 c -23.04,-25.937 -40.23,-43.437 -51.56,-52.5 -11.25,-9.07 -20.86,-13.597 -28.75,-13.597 -6.8,0 -12.26,2.148 -16.4,6.41 -4.07,4.258 -6.1,10 -6.1,17.187 0,4.449 0.82,9.84 2.5,16.09 1.76,6.25 4.14,12.891 7.19,20 z" /><path
         id="path32"
         style="fill:#a51212;fill-opacity:1;fill-rule:nonzero;stroke:none"
         d="m 2695.35,194.102 c -13.98,-34.063 -24.45,-57.543 -31.56,-70.473 -7.07,-12.891 -12.89,-19.367 -17.5,-19.367 -2.58,0 -4.73,1.359 -6.41,4.058 -1.64,2.731 -2.5,6.371 -2.5,10.942 0,13.976 2.42,27.578 7.19,40.777 4.81,13.121 12.42,26.641 22.81,40.473 0.12,0.078 0.28,0.347 0.47,0.777 6.37,7.5 13.63,19.262 21.88,35.313 l 28.75,56.41 c -5.24,-6.063 -11.21,-12.582 -17.97,-19.532 -6.68,-6.878 -15.47,-15.55 -26.41,-25.941 v 17.66 c 17.07,15.699 36.88,39.25 59.38,70.621 5.5,7.7 9.61,13.442 12.34,17.192 6.33,8.316 12.34,14.367 17.97,18.117 5.7,3.832 11.56,5.781 17.5,5.781 3.51,0 6.41,-0.738 8.59,-2.18 2.27,-1.371 3.44,-3.128 3.44,-5.32 0,-3.98 -4.92,-12.109 -14.69,-24.371 -9.8,-12.187 -17.89,-23.59 -24.22,-34.219 l -19.84,-34.218 c 14.14,13.828 28.28,25.199 42.34,34.058 14.07,8.949 24.26,13.442 30.63,13.442 4.69,0 8.12,-1.211 10.31,-3.59 2.19,-2.422 3.28,-6.211 3.28,-11.41 0,-11.872 -4.76,-25.473 -14.22,-40.782 -9.49,-15.23 -22.96,-30.781 -40.46,-46.718 0.5,-0.122 1.13,-0.231 1.87,-0.313 3.63,-0.937 5.98,-1.41 7.03,-1.41 8.52,0 18.01,3.441 28.44,10.32 10.51,6.871 25.82,20.231 45.94,40.153 l 0.31,-17.973 c -20.55,-21.789 -39.22,-38.508 -56.09,-50.149 -16.88,-11.64 -30.79,-17.5 -41.72,-17.5 -5.94,0 -11.64,0.782 -17.03,2.34 -5.32,1.559 -9.93,3.711 -13.75,6.41 -2.19,-0.39 -4.5,-0.781 -6.88,-1.101 -2.3,-0.391 -4.61,-0.617 -6.87,-0.617 -1.88,0 -3.87,0.226 -5.94,0.617 -1.99,0.43 -4.14,1.019 -6.41,1.723 z m 20.78,33.597 c 1.57,0.192 4.14,0.539 7.82,1.09 3.63,0.512 6.28,0.781 7.96,0.781 1.76,0 3.52,-0.16 5.32,-0.468 1.87,-0.313 3.94,-0.782 6.25,-1.403 13.12,14.571 22.5,26.012 28.12,34.371 5.7,8.321 8.6,14.571 8.6,18.75 0,1.95 -0.24,3.36 -0.63,4.219 -0.31,0.82 -1.02,1.289 -2.03,1.41 -6.17,0 -15.24,-5.469 -27.19,-16.41 -11.87,-10.859 -23.28,-24.961 -34.22,-42.34 z" /><path
         id="path34"
         style="fill:#a51212;fill-opacity:1;fill-rule:nonzero;stroke:none"
         d="m 2868.28,251.602 v -1.872 c 0,-8.359 2.19,-15 6.56,-20 4.38,-4.929 10.24,-7.351 17.66,-7.351 9.57,0 21.25,4.07 35,12.191 13.75,8.2 28.28,19.731 43.59,34.532 v -16.403 c -19.68,-21.801 -37.18,-37.66 -52.5,-47.66 -15.31,-9.879 -29.92,-14.84 -43.75,-14.84 -13.67,0 -24.06,4.332 -31.25,12.961 -7.26,8.641 -10.93,21.102 -10.93,37.352 0,11.867 2.81,23.468 8.43,34.84 5.55,11.328 13.79,22.226 24.85,32.66 11.01,10.508 22.38,18.437 34.06,23.75 11.76,5.308 23.59,7.968 35.47,7.968 8.94,0 15.62,-1.371 20,-4.07 4.37,-2.609 6.56,-6.711 6.56,-12.34 0,-12.621 -9.06,-26.172 -27.19,-40.621 -18.12,-14.379 -40.31,-24.769 -66.56,-31.097 z m 1.41,16.097 c 19.88,8.942 35.47,17.653 46.72,26.09 11.25,8.512 16.87,15.66 16.87,21.41 0,1.442 -0.27,2.5 -0.78,3.121 -0.43,0.7 -1.05,1.09 -1.88,1.09 -7.73,0 -17.89,-4.961 -30.46,-14.84 -12.5,-9.922 -22.66,-22.191 -30.47,-36.871 z" /><path
         id="path36"
         style="fill:#a51212;fill-opacity:1;fill-rule:nonzero;stroke:none"
         d="m 2954.26,236.289 -5.16,12.813 25.47,24.527 c -3.12,1.883 -5.43,3.91 -6.87,6.101 -1.45,2.18 -2.19,4.571 -2.19,7.18 0,9.77 5.86,20.981 17.65,33.602 11.88,12.578 21.72,18.898 29.54,18.898 1.13,0 2.18,-0.461 3.12,-1.398 1.02,-0.864 1.56,-1.961 1.56,-3.282 0,-0.859 -0.39,-2.191 -1.09,-4.07 -0.74,-1.871 -1.84,-4.18 -3.28,-6.871 l 31.09,1.871 c 0.7,0 1.64,0.078 2.81,0.32 4.77,0.309 8.17,0.469 10.16,0.469 6.56,0 11.33,-2.039 14.38,-6.097 3.12,-4.063 4.68,-10.274 4.68,-18.59 0,-3.051 -3.12,-7.461 -9.37,-13.282 -3.99,-3.441 -6.99,-6.25 -9.06,-8.441 -7,-7.5 -12.78,-15.391 -17.35,-23.59 -4.61,-8.129 -6.87,-14.609 -6.87,-19.379 0,-3.672 0.82,-6.48 2.5,-8.441 1.64,-1.867 4.1,-2.809 7.34,-2.809 3.63,0 9.57,3.051 17.81,9.219 8.32,6.133 21.64,17.66 40,34.531 v -16.558 c -20.43,-22.422 -36.99,-38.711 -49.68,-48.91 -12.74,-10.192 -22.78,-15.313 -30.16,-15.313 -6.56,0 -12.19,2.813 -16.88,8.441 -4.68,5.622 -7.03,12.54 -7.03,20.782 0,10.508 2.85,21.008 8.6,31.558 5.82,10.508 15.66,22.969 29.53,37.34 -8.75,-2.109 -16.02,-3.672 -21.72,-4.68 -5.74,-1.058 -11.17,-1.96 -16.25,-2.66 l -5,-5.308 c -19.18,-20.313 -31.92,-32.973 -38.28,-37.973 z" /><path
         id="path38"
         style="fill:#a51212;fill-opacity:1;fill-rule:nonzero;stroke:none"
         d="m 3221.64,269.102 0.31,-16.403 c -19.18,-21.679 -36.4,-38.09 -51.72,-49.219 -15.23,-11.019 -28.2,-16.57 -38.9,-16.57 -10.43,0 -19.92,5.942 -28.44,17.82 -8.44,11.95 -12.66,25.7 -12.66,41.25 0,11.641 3.05,23.04 9.07,34.219 6.13,11.129 15.15,21.563 27.03,31.25 10.39,8.942 21.4,16.172 32.97,21.711 11.64,5.512 21.13,8.289 28.43,8.289 6.14,0 10.55,-1.25 13.29,-3.75 2.69,-2.429 4.06,-6.25 4.06,-11.57 0,-9.801 -4.69,-20.617 -14.06,-32.5 -9.38,-11.867 -17.04,-17.809 -22.97,-17.809 -2.5,0 -4.38,0.981 -5.63,2.969 -1.25,1.949 -1.99,5.191 -2.19,9.691 -10.11,-6.058 -18.75,-12.191 -25.93,-18.441 -7.11,-6.25 -12.82,-12.5 -17.19,-18.75 v -3.75 c 0,-8.051 2.03,-14.301 6.09,-18.75 4.07,-4.488 9.61,-6.719 16.72,-6.719 10.7,0 22.74,3.828 36.1,11.559 13.32,7.699 28.51,19.531 45.62,35.473 z" /><path
         id="path40"
         style="fill:#a51212;fill-opacity:1;fill-rule:nonzero;stroke:none"
         d="m 3301.17,247.379 c -16.48,-17.301 -30,-30.231 -40.62,-38.75 -10.63,-8.43 -18.67,-12.649 -24.07,-12.649 -4.8,0 -10.93,6.168 -18.43,18.59 -7.58,12.5 -11.41,24.102 -11.41,34.84 0,7.82 3.24,16.61 9.69,26.41 6.44,9.77 15.47,19.41 27.03,28.91 8.63,7.18 17.85,13.508 27.66,19.059 9.88,5.512 20.7,10.473 32.5,14.84 8.32,3.211 16.17,5.781 23.59,7.66 7.5,1.949 12.73,2.973 15.78,2.973 3.95,0 7.89,-2.274 11.88,-6.723 3.94,-4.379 5.93,-8.559 5.93,-12.5 0,-1.168 -0.47,-2.187 -1.4,-3.129 -0.86,-0.93 -2.62,-2.14 -5.32,-3.59 l -6.71,-3.91 6.25,-13.281 c 0.93,-1.559 1.56,-2.93 1.87,-4.059 0.31,-1.05 0.47,-2.031 0.47,-2.968 0,-2.813 -4.81,-11.172 -14.38,-25 -9.6,-13.75 -14.37,-24.493 -14.37,-32.192 0,-2.93 0.94,-5.148 2.81,-6.711 1.88,-1.488 4.53,-2.187 7.97,-2.187 5.2,0 11.76,2.648 19.69,7.968 7.89,5.309 19.14,14.84 33.75,28.59 l 0.47,-16.09 c -25.75,-27.929 -43.68,-45.859 -53.75,-53.75 -10,-7.82 -18.52,-11.718 -25.47,-11.718 -5.74,0 -10.59,2.148 -14.53,6.398 -3.87,4.262 -5.78,9.61 -5.78,16.102 0,5.816 2.89,17.847 8.75,36.09 z m 30,64.851 c -39.92,-17.191 -65.78,-30.628 -77.65,-40.32 -11.8,-9.68 -17.66,-20.43 -17.66,-32.18 0,-2.929 0.55,-5.39 1.72,-7.351 1.25,-1.867 2.81,-2.809 4.69,-2.809 6.01,0 17.73,7.852 35.15,23.59 17.5,15.711 35.39,35.391 53.75,59.07 z" /><path
         id="path42"
         style="fill:#a51212;fill-opacity:1;fill-rule:nonzero;stroke:none"
         d="m 3375,236.289 -5.16,12.813 25.47,24.527 c -3.12,1.883 -5.43,3.91 -6.87,6.101 -1.45,2.18 -2.19,4.571 -2.19,7.18 0,9.77 5.86,20.981 17.66,33.602 11.87,12.578 21.71,18.898 29.53,18.898 1.13,0 2.18,-0.461 3.12,-1.398 1.02,-0.864 1.56,-1.961 1.56,-3.282 0,-0.859 -0.39,-2.191 -1.09,-4.07 -0.74,-1.871 -1.83,-4.18 -3.28,-6.871 l 31.09,1.871 c 0.71,0 1.64,0.078 2.82,0.32 4.76,0.309 8.16,0.469 10.15,0.469 6.57,0 11.33,-2.039 14.38,-6.097 3.12,-4.063 4.69,-10.274 4.69,-18.59 0,-3.051 -3.13,-7.461 -9.38,-13.282 -3.98,-3.441 -6.99,-6.25 -9.06,-8.441 -6.99,-7.5 -12.78,-15.391 -17.35,-23.59 -4.61,-8.129 -6.87,-14.609 -6.87,-19.379 0,-3.672 0.82,-6.48 2.5,-8.441 1.64,-1.867 4.1,-2.809 7.34,-2.809 3.64,0 9.57,3.051 17.82,9.219 8.32,6.133 21.64,17.66 40,34.531 v -16.558 c -20.43,-22.422 -37,-38.711 -49.69,-48.91 -12.74,-10.192 -22.78,-15.313 -30.16,-15.313 -6.56,0 -12.19,2.813 -16.87,8.441 -4.69,5.622 -7.04,12.54 -7.04,20.782 0,10.508 2.86,21.008 8.6,31.558 5.82,10.508 15.66,22.969 29.53,37.34 -8.75,-2.109 -16.02,-3.672 -21.72,-4.68 -5.74,-1.058 -11.17,-1.96 -16.25,-2.66 l -5,-5.308 C 3394.1,253.949 3381.37,241.289 3375,236.289 Z" /><path
         id="path44"
         style="fill:#a51212;fill-opacity:1;fill-rule:nonzero;stroke:none"
         d="M 3965.47,252.379 V 235.98 c -16.88,-19.3 -34.53,-34.929 -52.97,-46.878 -18.36,-12.071 -32.77,-18.122 -43.28,-18.122 -8.87,0 -15.74,4.329 -20.63,12.969 -4.92,8.672 -7.34,20.821 -7.34,36.563 0,15.816 7.34,36.597 22.03,62.34 14.77,25.82 35.2,53.437 61.25,82.808 -18.75,-15.308 -37.73,-32.93 -56.87,-52.808 -19.07,-19.922 -40.71,-44.961 -64.85,-75.153 l -5,-5.937 c -25.93,-32.192 -41.17,-48.282 -45.62,-48.282 -2.42,0 -5,3.981 -7.81,11.872 -2.74,7.886 -4.07,15.937 -4.07,24.058 0,10.32 13.13,34.539 39.38,72.66 26.33,38.2 46.87,74.102 61.56,107.66 -17.5,-12.308 -35.55,-28.91 -54.06,-49.851 -18.44,-20.859 -38.71,-47.5 -60.78,-80 -5.43,-8.039 -12.46,-18.707 -21.1,-32.027 -18.75,-28.672 -31.01,-42.973 -36.72,-42.973 -3.86,0 -7.73,3.793 -11.56,11.41 -3.87,7.691 -5.78,15.82 -5.78,24.371 0,7.27 7.42,21.141 22.34,41.57 8.95,12.5 16.14,22.848 21.57,31.09 16.13,24.77 28.9,46.41 38.28,64.84 9.37,18.52 14.06,31.18 14.06,37.969 0,1.141 -0.59,2.23 -1.72,3.281 -1.17,1.02 -2.46,1.57 -3.9,1.57 -2.19,0 -6.84,-1.839 -13.91,-5.468 -7.11,-3.563 -17.19,-9.063 -30.31,-16.563 -3.36,-2 -7.89,-4.687 -13.6,-8.129 -15.74,-9.371 -25.62,-14.058 -29.68,-14.058 -2.74,0 -4.65,0.617 -5.79,1.867 -1.17,1.25 -1.71,3.281 -1.71,6.101 0,7.692 1.4,16.442 4.21,26.25 2.82,9.758 6.14,17.418 10,22.969 4.07,5.699 9.53,11.172 16.41,16.403 6.95,5.199 11.29,7.808 12.97,7.808 0.51,0 0.98,-0.269 1.41,-0.781 0.39,-0.43 0.62,-0.899 0.62,-1.399 0,-0.429 -0.55,-1.332 -1.56,-2.66 -1.06,-1.371 -2.31,-2.73 -3.75,-4.058 l -12.81,-12.5 c 18,9.367 34.53,16.91 49.53,22.648 15,5.82 25.19,8.75 30.62,8.75 5.7,0 11.02,-4.332 15.94,-12.961 4.88,-8.679 7.34,-16.961 7.34,-24.847 0,-11.372 -3.9,-25.942 -11.72,-43.75 -7.81,-17.731 -18.75,-37.153 -32.81,-58.282 27.07,36.129 53.63,66.09 79.69,89.84 26.01,23.75 43.32,35.629 51.87,35.629 3.44,0 7.43,-2.891 12.04,-8.59 4.68,-5.629 7.03,-12 7.03,-19.07 0,-6.988 -5,-20.391 -15,-40.149 -10,-19.808 -23.99,-43.679 -41.88,-71.57 35.31,39.141 66.49,70.942 93.59,95.32 27.08,24.45 44.26,36.719 51.57,36.719 3.75,0 7.73,-4.07 12.03,-12.187 4.37,-8.051 6.56,-14.813 6.56,-20.313 0,-5.238 -6.25,-15.16 -18.75,-29.847 -8.44,-10.122 -15.27,-18.512 -20.47,-25.153 -21.17,-27.308 -37.11,-51.57 -47.81,-72.82 -10.74,-21.168 -16.09,-38.981 -16.09,-53.43 0,-5.629 0.66,-9.461 2.03,-11.41 1.33,-1.988 3.9,-2.969 7.65,-2.969 6.14,0 15.67,4.059 28.6,12.192 12.89,8.199 26.09,18.828 39.53,31.867 z" /><path
         id="path46"
         style="fill:#a51212;fill-opacity:1;fill-rule:nonzero;stroke:none"
         d="m 4056.45,247.379 c -16.49,-17.301 -30,-30.231 -40.63,-38.75 -10.62,-8.43 -18.67,-12.649 -24.06,-12.649 -4.81,0 -10.94,6.168 -18.44,18.59 -7.58,12.5 -11.41,24.102 -11.41,34.84 0,7.82 3.25,16.61 9.69,26.41 6.45,9.77 15.47,19.41 27.03,28.91 8.64,7.18 17.85,13.508 27.66,19.059 9.88,5.512 20.7,10.473 32.5,14.84 8.32,3.211 16.17,5.781 23.59,7.66 7.5,1.949 12.74,2.973 15.78,2.973 3.95,0 7.89,-2.274 11.88,-6.723 3.94,-4.379 5.94,-8.559 5.94,-12.5 0,-1.168 -0.47,-2.187 -1.41,-3.129 -0.86,-0.93 -2.62,-2.14 -5.31,-3.59 l -6.72,-3.91 6.25,-13.281 c 0.94,-1.559 1.56,-2.93 1.87,-4.059 0.32,-1.05 0.47,-2.031 0.47,-2.968 0,-2.813 -4.8,-11.172 -14.37,-25 -9.61,-13.75 -14.38,-24.493 -14.38,-32.192 0,-2.93 0.94,-5.148 2.82,-6.711 1.87,-1.488 4.53,-2.187 7.96,-2.187 5.2,0 11.76,2.648 19.69,7.968 7.89,5.309 19.14,14.84 33.75,28.59 l 0.47,-16.09 c -25.74,-27.929 -43.67,-45.859 -53.75,-53.75 -10,-7.82 -18.52,-11.718 -25.47,-11.718 -5.74,0 -10.58,2.148 -14.53,6.398 -3.87,4.262 -5.78,9.61 -5.78,16.102 0,5.816 2.89,17.847 8.75,36.09 z m 30,64.851 c -39.93,-17.191 -65.79,-30.628 -77.66,-40.32 -11.8,-9.68 -17.66,-20.43 -17.66,-32.18 0,-2.929 0.55,-5.39 1.72,-7.351 1.25,-1.867 2.81,-2.809 4.69,-2.809 6.01,0 17.73,7.852 35.16,23.59 17.5,15.711 35.39,35.391 53.75,59.07 z" /><path
         id="path48"
         style="fill:#a51212;fill-opacity:1;fill-rule:nonzero;stroke:none"
         d="m 4151.05,254.57 c -1.36,-1.05 -2.81,-2.148 -4.37,-3.281 -1.56,-1.168 -3.95,-2.809 -7.19,-5 l -0.31,15.781 c 9.45,9.879 17.81,18.981 25,27.34 7.19,8.442 13.67,16.488 19.53,24.219 -3.87,0.633 -7.42,1.101 -10.62,1.41 -3.25,0.313 -6.18,0.473 -8.75,0.473 h -7.5 c -1.25,0 -2.19,0.148 -2.82,0.468 -0.62,0.391 -0.93,1.008 -0.93,1.872 0,2.578 2.69,7.886 8.12,15.937 5.39,8.012 10.31,13.512 14.69,16.563 3.01,2.187 7.42,3.789 13.28,4.847 5.82,1.012 14.1,1.641 24.84,1.871 1.25,1.641 2.89,3.828 5,6.559 13.01,17.82 26.57,26.723 40.63,26.723 2.07,0 3.9,-0.582 5.47,-1.723 1.64,-1.168 2.5,-2.457 2.5,-3.899 0,-1.57 -0.39,-3.21 -1.1,-4.851 -0.74,-1.559 -1.95,-3.199 -3.59,-4.84 l -15.47,-18.59 c 6.02,-0.429 10.78,-1.25 14.22,-2.5 3.44,-1.179 5.16,-2.578 5.16,-4.219 0,-1.8 -2.35,-6.019 -7.04,-12.66 -4.68,-6.558 -10.11,-12.73 -16.25,-18.441 -3.75,-3.43 -7.14,-5.738 -10.15,-6.867 -3.05,-1.172 -6.99,-1.723 -11.88,-1.723 -3.67,0 -6.21,0 -7.65,0 -1.49,0.082 -2.66,0.16 -3.6,0.16 -10.54,-13.051 -18.86,-26.648 -25,-40.789 -6.05,-14.18 -9.06,-26.398 -9.06,-36.711 0,-3.75 0.86,-6.648 2.66,-8.597 1.75,-1.872 4.25,-2.813 7.5,-2.813 5.08,0 13.04,3.789 23.9,11.41 10.82,7.571 25.39,19.602 43.75,36.09 l 0.32,-16.09 c -19.93,-21.25 -37.93,-37.621 -54.07,-49.07 -16.17,-11.328 -29.37,-17.027 -39.68,-17.027 -7.31,0 -12.93,2.027 -16.88,6.097 -3.94,4.063 -5.94,9.879 -5.94,17.5 0,6.129 1.18,13 3.44,20.621 2.31,7.578 5.55,15.508 9.84,23.75 z" /><path
         id="path50"
         style="fill:#a51212;fill-opacity:1;fill-rule:nonzero;stroke:none"
         d="m 4375,269.102 0.31,-16.403 c -19.18,-21.679 -36.4,-38.09 -51.72,-49.219 -15.23,-11.019 -28.2,-16.57 -38.9,-16.57 -10.43,0 -19.92,5.942 -28.44,17.82 -8.44,11.95 -12.66,25.7 -12.66,41.25 0,11.641 3.05,23.04 9.07,34.219 6.13,11.129 15.15,21.563 27.03,31.25 10.39,8.942 21.4,16.172 32.97,21.711 11.64,5.512 21.13,8.289 28.43,8.289 6.14,0 10.55,-1.25 13.29,-3.75 2.69,-2.429 4.06,-6.25 4.06,-11.57 0,-9.801 -4.69,-20.617 -14.06,-32.5 -9.38,-11.867 -17.04,-17.809 -22.97,-17.809 -2.5,0 -4.38,0.981 -5.63,2.969 -1.25,1.949 -1.99,5.191 -2.19,9.691 -10.11,-6.058 -18.75,-12.191 -25.93,-18.441 -7.11,-6.25 -12.82,-12.5 -17.19,-18.75 v -3.75 c 0,-8.051 2.03,-14.301 6.09,-18.75 4.06,-4.488 9.61,-6.719 16.72,-6.719 10.7,0 22.74,3.828 36.1,11.559 13.32,7.699 28.51,19.531 45.62,35.473 z" /><path
         id="path52"
         style="fill:#a51212;fill-opacity:1;fill-rule:nonzero;stroke:none"
         d="m 4529.06,268.789 0.32,-16.09 c -18.87,-21.57 -35.12,-37.621 -48.76,-48.129 -13.67,-10.511 -24.96,-15.781 -33.9,-15.781 -5.55,0 -9.96,2.191 -13.28,6.563 -3.36,4.257 -5,10.039 -5,17.347 0,6.641 2.42,15.071 7.34,25.313 4.88,10.187 13.52,24.566 25.94,43.117 -16.68,-14.801 -33.71,-32.609 -51.1,-53.43 -17.3,-20.75 -28.28,-31.097 -32.96,-31.097 -4.5,0 -7.66,2.418 -9.54,7.347 -1.87,4.879 -2.81,14.102 -2.81,27.653 v 8.91 c 0,7.808 0.43,14.097 1.25,18.898 0.74,4.891 1.96,9.61 3.6,14.219 2.81,8.211 8.28,18.992 16.4,32.351 8.21,13.321 18.95,29.098 32.19,47.34 20.31,27.809 39.92,51.41 58.91,70.782 19.06,19.378 31.09,29.058 36.09,29.058 3.32,0 6.64,-1.25 10,-3.75 3.32,-2.422 5,-4.64 5,-6.711 0,-6.879 -12.81,-27.898 -38.44,-62.969 -25.62,-35 -57.93,-74.609 -96.87,-118.75 l -2.35,-18.75 c 22.7,24.45 43.05,44.141 61.1,59.059 18.01,15 30.04,22.5 36.09,22.5 3.2,0 7.03,-2.34 11.41,-7.027 4.37,-4.614 6.56,-8.602 6.56,-12.032 0,-1.492 -0.78,-3.441 -2.34,-5.941 -1.49,-2.5 -4.77,-7.148 -9.85,-13.91 -11.87,-15.231 -19.8,-26.207 -23.75,-32.969 -3.98,-6.789 -5.93,-12.109 -5.93,-15.93 0,-2.191 0.7,-4.07 2.18,-5.628 1.56,-1.563 3.44,-2.34 5.63,-2.34 5.19,0 12.54,3.437 22.03,10.308 9.57,6.879 21.17,17.032 34.84,30.469 z" /></g></g></svg>